<svg width="128" height="128" viewBox="0 0 128 128" fill="none" xmlns="http://www.w3.org/2000/svg">
<circle cx="64" cy="64" r="63.5" stroke="#8EE8B7"/>
<path d="M63.5284 81.1251H43.1587L38.9971 93.9621C38.8876 94.4537 38.4495 94.7815 37.9567 94.7269H27.6623C27.06 94.7269 26.8957 94.3991 27.06 93.7436L44.6919 43.1057C44.8561 42.5595 45.0204 41.9586 45.2394 41.3031C45.4585 40.1559 45.568 38.9542 45.568 37.7524C45.5132 37.4793 45.7323 37.2062 46.006 37.1515H60.1882C60.6263 37.1515 60.8453 37.3154 60.9001 37.5885L80.8865 93.8529C81.0508 94.4537 80.8865 94.7269 80.3389 94.7269H68.8946C68.5113 94.7815 68.128 94.5084 68.0185 94.126L63.5284 81.1251ZM46.3346 70.0361H60.243C59.9144 68.889 59.4764 67.5233 58.9835 66.1031C58.4907 64.6282 57.9979 63.0441 57.5051 61.4053C56.9575 59.7119 56.4647 58.0731 55.9171 56.3797C55.3696 54.6863 54.8767 53.1022 54.4387 51.5181C54.0006 49.9885 53.6173 48.5683 53.234 47.2573H53.1245C52.6317 49.6062 52.0294 51.9551 51.2628 54.304C50.4414 56.926 49.62 59.6573 48.7439 62.3885C47.9773 65.1744 47.1559 67.7418 46.3346 70.0361ZM93.0974 46.711C91.2904 46.7656 89.5382 46.0555 88.224 44.7991C86.9646 43.4335 86.3075 41.6308 86.3622 39.7736C86.3075 37.9163 87.0193 36.1683 88.3335 34.9119C89.6477 33.6555 91.3999 33 93.2069 33C95.3425 33 96.9852 33.6555 98.1898 34.9119C99.3945 36.2229 100.052 37.9709 99.9968 39.7736C100.052 41.6308 99.3945 43.4335 98.0803 44.7991C96.8209 46.1101 94.9592 46.8203 93.0974 46.711ZM86.9646 94.126V52.0643C86.9646 51.5181 87.1836 51.2996 87.6764 51.2996H98.5184C99.0112 51.2996 99.2302 51.5727 99.2302 52.0643V94.126C99.2302 94.7269 99.0112 95 98.5184 95H87.7859C87.2384 95 86.9646 94.6722 86.9646 94.126Z" fill="#8EE8B7"/>
</svg>
