<svg width="56" height="56" viewBox="0 0 56 56" fill="none" xmlns="http://www.w3.org/2000/svg">
<path d="M2 38.1667V7.16667C2 5.79638 2.54434 4.48222 3.51328 3.51328C4.48222 2.54434 5.79638 2 7.16667 2H35.5833M2 38.1667C2 36.7964 2.54434 35.4822 3.51328 34.5133C4.48222 33.5443 5.79638 33 7.16667 33H9.75M2 38.1667C2 39.5369 2.54434 40.8511 3.51328 41.82C4.48222 42.789 5.79638 43.3333 7.16667 43.3333H9.75M53.6667 43.3333H25.25C23.8797 43.3333 22.5656 43.8777 21.5966 44.8466C20.6277 45.8156 20.0833 47.1297 20.0833 48.5M20.0833 48.5C20.0833 49.8703 20.6277 51.1844 21.5966 52.1534C22.5656 53.1223 23.8797 53.6667 25.25 53.6667H53.6667V12.3333H25.25C23.8797 12.3333 22.5656 12.8777 21.5966 13.8466C20.6277 14.8156 20.0833 16.1297 20.0833 17.5V48.5Z" stroke="#3D5876" stroke-width="3" stroke-linecap="round" stroke-linejoin="round"/>
</svg>
