<svg width="68" height="49" viewBox="0 0 68 49" fill="none" xmlns="http://www.w3.org/2000/svg">
<path d="M27.6667 34.0833C27.6667 41.171 21.921 46.9167 14.8333 46.9167C7.74568 46.9167 2 41.171 2 34.0833C2 26.9957 7.74568 21.25 14.8333 21.25C21.921 21.25 27.6667 26.9957 27.6667 34.0833ZM27.6667 34.0833C27.6667 32.3815 28.3427 30.7494 29.5461 29.5461C30.7494 28.3427 32.3815 27.6667 34.0833 27.6667C35.7851 27.6667 37.4172 28.3427 38.6206 29.5461C39.824 30.7494 40.5 32.3815 40.5 34.0833M40.5 34.0833C40.5 41.171 46.2457 46.9167 53.3333 46.9167C60.421 46.9167 66.1667 41.171 66.1667 34.0833C66.1667 26.9957 60.421 21.25 53.3333 21.25C46.2457 21.25 40.5 26.9957 40.5 34.0833ZM3.60417 27.6667L11.625 8.41667C13.8708 4.24583 16.1167 2 21.25 2M64.5625 27.6667L56.5417 8.41667C54.2958 4.24583 51.7292 2 46.9167 2" stroke="#3D5876" stroke-width="3" stroke-linecap="round" stroke-linejoin="round"/>
</svg>
