<svg width="65" height="65" viewBox="0 0 65 65" fill="none" xmlns="http://www.w3.org/2000/svg">
<path d="M32.5 59.5832C47.4577 59.5832 59.5834 47.4576 59.5834 32.4998C59.5834 17.5421 47.4577 5.4165 32.5 5.4165C17.5423 5.4165 5.41669 17.5421 5.41669 32.4998C5.41669 47.4576 17.5423 59.5832 32.5 59.5832Z" stroke="#3D5876" stroke-width="2" stroke-linecap="round" stroke-linejoin="round"/>
<path d="M32.5 43.3332C38.4831 43.3332 43.3334 38.4829 43.3334 32.4998C43.3334 26.5168 38.4831 21.6665 32.5 21.6665C26.5169 21.6665 21.6667 26.5168 21.6667 32.4998C21.6667 38.4829 26.5169 43.3332 32.5 43.3332Z" stroke="#3D5876" stroke-width="2" stroke-linecap="round" stroke-linejoin="round"/>
<path d="M57.3354 21.6665H32.5" stroke="#3D5876" stroke-width="2" stroke-linecap="round" stroke-linejoin="round"/>
<path d="M10.6979 16.4126L23.1292 37.9168" stroke="#3D5876" stroke-width="2" stroke-linecap="round" stroke-linejoin="round"/>
<path d="M29.4667 59.4207L41.8708 37.9165" stroke="#3D5876" stroke-width="2" stroke-linecap="round" stroke-linejoin="round"/>
</svg>
