<svg width="128" height="128" viewBox="0 0 128 128" fill="none" xmlns="http://www.w3.org/2000/svg">
<circle cx="64" cy="64" r="63.5" stroke="#8EE8B7"/>
<path d="M64.431 24.1126C70.0314 24.1466 75.6837 23.7198 81.2185 24.3357C87.5989 25.0456 92.0335 31.1724 91.964 37.9346C91.8952 44.6234 87.2686 49.8417 79.8724 51.2144C77.9575 51.3681 76.4468 51.4238 74.6645 51.4274C71.0681 51.5479 67.7433 51.7205 64.2958 51.8519C64.0624 51.5825 63.9515 51.3541 63.9581 51.0255C64.191 50.7606 64.3065 50.5961 64.4346 50.1806C64.436 41.5335 64.4248 33.1375 64.4189 24.5842C64.4264 24.3222 64.4287 24.2174 64.431 24.1126Z" fill="#8EE8B7"/>
<path d="M63.8407 51.1256C63.9515 51.354 64.0624 51.5823 64.3132 52.1141C64.4968 55.9228 64.5405 59.428 64.5654 63.1951C64.5477 64.8474 64.5488 66.2376 64.5498 67.6279C64.5145 71.1472 64.4792 74.6665 64.2907 78.4396C64.1375 78.6934 63.9093 78.7721 63.6606 78.7264C58.5524 78.7366 53.693 78.7925 48.7111 78.8259C48.5885 78.8035 48.3513 78.8794 48.3376 78.8291C48.3239 78.7788 48.269 78.6901 48.269 78.6901C44.7388 77.3586 41.4269 75.7333 39.2742 72.4283C33.8614 64.1177 38.6594 53.1762 48.8712 51.3735C49.4983 51.2563 49.7712 51.1747 50.2874 51.1172C54.9674 51.136 59.404 51.1308 63.8407 51.1256Z" fill="#8EE8B7"/>
<path d="M64.4137 24.7413C64.4248 33.1374 64.436 41.5335 64.1849 50.1771C61.3493 50.4239 58.7744 50.3673 56.2031 50.4376C53.4011 50.5142 50.6023 50.7084 47.8021 50.8513C41.5043 49.2871 37.3213 44.3712 37.0173 38.1768C36.7051 31.8136 40.6223 26.5889 47.778 24.4559C53.5684 24.6449 58.991 24.6931 64.4137 24.7413Z" fill="#8EE8B7"/>
<path d="M48.8336 78.8484C53.693 78.7925 58.5524 78.7367 63.6681 78.8803C64.0809 79.3283 64.2373 79.5767 64.3938 79.8251C64.4281 84.0877 64.5408 88.3514 64.4789 92.6126C64.3776 99.5834 59.144 105.082 51.9473 105.922C45.6038 106.662 39.0968 102.054 37.4999 95.6902C35.7959 88.8996 39.1962 82.1885 45.6402 79.642C46.3847 79.3478 47.1495 79.1043 48.0869 78.7638C48.269 78.6902 48.3239 78.7789 48.3823 78.9031C48.4407 79.0273 48.6748 79.0462 48.6748 79.0462L48.8336 78.8484Z" fill="#8EE8B7"/>
<path d="M64.6877 67.7467C64.5487 66.2377 64.5477 64.8474 64.6594 63.0664C65.7906 56.8172 69.62 53.4812 74.9361 51.4793C76.4468 51.4237 77.9575 51.368 79.6916 51.3023C86.2163 52.0059 91.5297 58.1236 91.9422 63.1574C92.4771 69.6848 89.2765 75.2359 83.3383 77.6556C75.6265 80.7981 67.1537 76.3174 64.6877 67.7467Z" fill="#8EE8B7"/>
</svg>
