<svg width="128" height="128" viewBox="0 0 128 128" fill="none" xmlns="http://www.w3.org/2000/svg">
<circle cx="64" cy="64" r="63.5" stroke="#8EE8B7"/>
<path d="M30.003 31L36.1001 100.302L63.4615 108L90.897 100.293L97 31.003H30L30.003 31ZM55.2806 48.9464L54.0683 62.2854L82.7339 62.2884L82.5294 64.5711L80.5583 86.9478L80.4338 88.3836L63.2303 93.2163L46.0505 88.3836L44.8767 75.0386H53.2947L53.8934 81.8177L63.2421 84.3708L72.5968 81.8117L73.569 70.7885L44.9034 70.7855L45.1079 68.5028L47.079 46.1261L47.6985 39.8606H81.154L81.5423 44.6603L82.7369 58.0353H74.3159L73.5393 49.2588L64.9761 48.7362H63.4496V48.7242L55.2836 48.9464H55.2806Z" fill="#8EE8B7"/>
</svg>
