<svg width="224" height="116" viewBox="0 0 224 116" fill="none" xmlns="http://www.w3.org/2000/svg">
<path d="M158.72 52.45L106.26 0L62.52 43.74H74.84L106.26 12.32L146.39 52.45H158.72Z" fill="#EE7032"/>
<path d="M79.67 60.85V54.34L141.57 68.7V75.21L79.67 60.85Z" fill="#EE7032"/>
<path d="M20.64 89.17H14.44L5.36 99.53V89.17H0V114.69H5.36V103.14L14.84 114.69H21.18L10.06 101.13L20.64 89.17Z" fill="black"/>
<path d="M43.84 92.38C42.61 91.19 41.18 90.27 39.56 89.63C37.93 88.99 36.14 88.66 34.2 88.66C32.28 88.66 30.5 88.98 28.86 89.63C27.22 90.27 25.79 91.19 24.58 92.38C23.37 93.57 22.42 94.98 21.74 96.59C21.06 98.21 20.72 99.99 20.72 101.93C20.72 103.85 21.05 105.63 21.7 107.27C22.35 108.91 23.29 110.34 24.51 111.55C25.72 112.77 27.15 113.71 28.79 114.38C30.43 115.05 32.24 115.38 34.21 115.38C36.18 115.38 37.98 115.05 39.62 114.38C41.26 113.71 42.68 112.77 43.89 111.55C45.1 110.33 46.03 108.91 46.7 107.27C47.37 105.63 47.7 103.85 47.7 101.93C47.7 99.99 47.37 98.21 46.7 96.59C46.02 94.98 45.07 93.57 43.84 92.38ZM41.15 106.27C40.48 107.53 39.55 108.53 38.36 109.26C37.17 109.99 35.78 110.35 34.2 110.35C32.62 110.35 31.23 109.99 30.04 109.26C28.85 108.53 27.91 107.53 27.23 106.27C26.55 105.01 26.21 103.56 26.21 101.93C26.21 100.3 26.55 98.86 27.23 97.59C27.91 96.33 28.85 95.33 30.04 94.6C31.23 93.87 32.62 93.51 34.2 93.51C35.8 93.51 37.2 93.87 38.39 94.6C39.58 95.33 40.5 96.33 41.16 97.59C41.82 98.85 42.14 100.3 42.14 101.93C42.15 103.56 41.81 105.01 41.15 106.27Z" fill="black"/>
<path d="M67.43 90.74C65.42 89.7 63.08 89.17 60.41 89.17H51.74V114.69H60.41C63.08 114.69 65.42 114.17 67.43 113.12C69.43 112.08 71 110.6 72.11 108.69C73.23 106.78 73.79 104.53 73.79 101.93C73.79 99.33 73.23 97.08 72.11 95.17C71 93.26 69.44 91.79 67.43 90.74ZM67.8 105.56C67.37 106.57 66.78 107.4 66.03 108.06C65.28 108.72 64.4 109.2 63.41 109.5C62.41 109.8 61.36 109.96 60.24 109.96H57.07V93.92H60.24C61.36 93.92 62.41 94.07 63.41 94.38C64.41 94.68 65.28 95.16 66.03 95.82C66.78 96.48 67.37 97.31 67.8 98.32C68.22 99.33 68.44 100.54 68.44 101.95C68.43 103.34 68.22 104.55 67.8 105.56Z" fill="black"/>
<path d="M77.84 89.17V114.69H94.07V110.28H82.87V103.32H93.34V98.98H82.87V93.58H94.07V89.17H77.84Z" fill="black"/>
<path d="M104.42 89.17H99.21V114.69H114.59V110.14H104.42V89.17Z" fill="black"/>
<path d="M138.16 92.38C136.93 91.19 135.5 90.27 133.88 89.63C132.25 88.99 130.46 88.66 128.52 88.66C126.6 88.66 124.82 88.98 123.18 89.63C121.54 90.27 120.11 91.19 118.9 92.38C117.69 93.57 116.74 94.98 116.06 96.59C115.38 98.21 115.04 99.99 115.04 101.93C115.04 103.85 115.37 105.63 116.02 107.27C116.67 108.91 117.61 110.34 118.83 111.55C120.04 112.77 121.47 113.71 123.11 114.38C124.75 115.05 126.56 115.38 128.53 115.38C130.5 115.38 132.3 115.05 133.94 114.38C135.58 113.71 137 112.77 138.21 111.55C139.42 110.33 140.35 108.91 141.02 107.27C141.69 105.63 142.02 103.85 142.02 101.93C142.02 99.99 141.69 98.21 141.02 96.59C140.34 94.98 139.39 93.57 138.16 92.38ZM135.47 106.27C134.8 107.53 133.87 108.53 132.68 109.26C131.49 109.99 130.1 110.35 128.52 110.35C126.94 110.35 125.55 109.99 124.36 109.26C123.17 108.53 122.23 107.53 121.55 106.27C120.87 105.01 120.53 103.56 120.53 101.93C120.53 100.3 120.87 98.86 121.55 97.59C122.23 96.33 123.17 95.33 124.36 94.6C125.55 93.87 126.94 93.51 128.52 93.51C130.12 93.51 131.52 93.87 132.71 94.6C133.9 95.33 134.82 96.33 135.48 97.59C136.14 98.85 136.46 100.3 136.46 101.93C136.47 103.56 136.13 105.01 135.47 106.27Z" fill="black"/>
<path d="M146.05 89.17V114.69H151.09V103.79H160.46V99.45H151.09V93.73H160.82V89.17H146.05Z" fill="black"/>
<path d="M164.14 93.88H170.99V114.69H176.21V93.88H183.1V89.17H164.14V93.88Z" fill="black"/>
<path d="M186.05 89.17V114.69H202.27V110.28H191.08V103.32H201.55V98.98H191.08V93.58H202.27V89.17H186.05Z" fill="black"/>
<path d="M204.86 89.17V93.88H211.72V114.69H216.93V93.88H223.82V89.17H204.86Z" fill="black"/>
</svg>
