<svg width="393" height="95" viewBox="0 0 393 95" fill="none" xmlns="http://www.w3.org/2000/svg">
<path d="M135.111 0L128.466 67.9143L42.2222 95L45.1913 59.1082L48.0189 23.0829L135.111 0Z" fill="#77C4B4"/>
<path d="M42.2222 59.1111L39.2799 95L0 66.7158L42.2222 59.1111Z" fill="#F4A366"/>
<path d="M174.664 38.984V52.184L184.84 38.984H195.112L182.392 54.152L196.264 71H185.512L174.664 57.128V71H166.36V38.984H174.664Z" fill="#77C4B4"/>
<path d="M209.516 55.352C208.268 55.352 206.924 55.928 206.06 56.744C205.1 57.656 204.572 59 204.572 60.248C204.572 61.544 205.196 62.792 206.06 63.656C206.972 64.568 208.22 65.096 209.516 65.096C210.764 65.096 212.012 64.568 212.924 63.656C213.884 62.744 214.412 61.496 214.412 60.248C214.412 59.096 213.884 57.704 212.924 56.744C212.06 55.928 210.716 55.352 209.516 55.352ZM222.38 60.248C222.38 63.128 221.42 65.864 219.068 68.168C216.236 70.952 212.924 71.72 209.468 71.72C206.348 71.72 202.892 71.096 199.916 68.168C197.564 65.864 196.604 63.128 196.604 60.248C196.604 56.408 198.332 53.912 199.916 52.376C201.692 50.648 204.812 48.824 209.468 48.824C214.22 48.824 217.292 50.696 219.068 52.376C220.652 53.912 222.38 56.408 222.38 60.248Z" fill="#77C4B4"/>
<path d="M251.1 36.008V71H243.42V68.648C241.26 71.432 238.428 71.72 236.94 71.72C233.868 71.72 231.42 70.712 229.404 68.744C227.244 66.632 225.948 63.608 225.948 60.2C225.948 56.552 227.484 53.576 229.452 51.704C231.564 49.688 234.396 48.824 237.036 48.824C239.964 48.824 242.028 50.12 243.42 51.608V36.008H251.1ZM238.716 65.192C239.964 65.192 241.212 64.616 242.028 63.896C243.036 62.984 243.66 61.544 243.66 60.248C243.66 59.048 242.988 57.608 242.22 56.792C241.356 55.88 240.156 55.352 238.716 55.352C237.084 55.352 235.98 56.072 235.308 56.744C234.444 57.608 233.82 58.952 233.82 60.392C233.82 61.496 234.3 62.744 235.308 63.752C236.364 64.808 237.612 65.192 238.716 65.192Z" fill="#77C4B4"/>
<path d="M279.142 60.872V61.688H263.158C263.158 62.84 263.59 64.376 264.502 65.288C264.982 65.768 265.942 66.344 267.67 66.344C267.862 66.344 269.206 66.296 270.166 65.768C270.646 65.48 271.174 65 271.51 64.328H278.854C278.518 65.528 277.846 67.208 276.262 68.744C274.678 70.28 272.182 71.72 267.526 71.72C264.694 71.72 261.286 71.096 258.646 68.456C257.254 67.064 255.478 64.424 255.478 60.344C255.478 56.744 256.822 53.864 258.694 52.04C260.47 50.312 263.254 48.92 267.478 48.92C269.974 48.92 273.19 49.448 275.734 51.848C278.758 54.728 279.142 58.472 279.142 60.872ZM263.398 57.272H272.086C271.894 56.456 271.414 55.544 270.838 54.968C269.83 53.96 268.438 53.816 267.67 53.816C266.374 53.816 265.366 54.152 264.55 54.968C264.022 55.544 263.542 56.312 263.398 57.272Z" fill="#77C4B4"/>
<path d="M283.578 71V36.008H291.258V52.232C291.834 51.512 292.746 50.648 293.658 50.12C295.146 49.256 296.729 49.064 298.073 49.064C301.097 49.064 303.114 50.072 304.41 51.368C306.33 53.288 306.426 55.304 306.426 57.368V71H298.746V60.152C298.746 58.568 298.649 56.936 297.785 55.976C297.065 55.16 296.105 55.064 295.337 55.064C294.521 55.064 293.417 55.208 292.553 55.976C291.881 56.6 291.258 57.752 291.258 59.48V71H283.578Z" fill="#77C4B4"/>
<path d="M322.766 55.352C321.518 55.352 320.174 55.928 319.31 56.744C318.35 57.656 317.822 59 317.822 60.248C317.822 61.544 318.446 62.792 319.31 63.656C320.222 64.568 321.47 65.096 322.766 65.096C324.014 65.096 325.262 64.568 326.174 63.656C327.134 62.744 327.662 61.496 327.662 60.248C327.662 59.096 327.134 57.704 326.174 56.744C325.31 55.928 323.966 55.352 322.766 55.352ZM335.63 60.248C335.63 63.128 334.67 65.864 332.318 68.168C329.486 70.952 326.174 71.72 322.718 71.72C319.598 71.72 316.142 71.096 313.166 68.168C310.814 65.864 309.854 63.128 309.854 60.248C309.854 56.408 311.582 53.912 313.166 52.376C314.942 50.648 318.062 48.824 322.718 48.824C327.47 48.824 330.542 50.696 332.318 52.376C333.902 53.912 335.63 56.408 335.63 60.248Z" fill="#77C4B4"/>
<path d="M364.35 36.008V71H356.67V68.648C354.51 71.432 351.678 71.72 350.19 71.72C347.118 71.72 344.67 70.712 342.654 68.744C340.494 66.632 339.198 63.608 339.198 60.2C339.198 56.552 340.734 53.576 342.702 51.704C344.814 49.688 347.646 48.824 350.286 48.824C353.214 48.824 355.278 50.12 356.67 51.608V36.008H364.35ZM351.966 65.192C353.214 65.192 354.462 64.616 355.278 63.896C356.286 62.984 356.91 61.544 356.91 60.248C356.91 59.048 356.238 57.608 355.47 56.792C354.606 55.88 353.406 55.352 351.966 55.352C350.334 55.352 349.23 56.072 348.558 56.744C347.694 57.608 347.07 58.952 347.07 60.392C347.07 61.496 347.55 62.744 348.558 63.752C349.614 64.808 350.862 65.192 351.966 65.192Z" fill="#77C4B4"/>
<path d="M392.392 60.872V61.688H376.408C376.408 62.84 376.84 64.376 377.752 65.288C378.232 65.768 379.192 66.344 380.92 66.344C381.112 66.344 382.456 66.296 383.416 65.768C383.896 65.48 384.424 65 384.76 64.328H392.104C391.768 65.528 391.096 67.208 389.512 68.744C387.928 70.28 385.432 71.72 380.776 71.72C377.944 71.72 374.536 71.096 371.896 68.456C370.504 67.064 368.728 64.424 368.728 60.344C368.728 56.744 370.072 53.864 371.944 52.04C373.72 50.312 376.504 48.92 380.728 48.92C383.224 48.92 386.44 49.448 388.984 51.848C392.008 54.728 392.392 58.472 392.392 60.872ZM376.648 57.272H385.336C385.144 56.456 384.664 55.544 384.088 54.968C383.08 53.96 381.688 53.816 380.92 53.816C379.624 53.816 378.616 54.152 377.8 54.968C377.272 55.544 376.792 56.312 376.648 57.272Z" fill="#77C4B4"/>
</svg>
