<svg width="50" height="65" viewBox="0 0 50 65" fill="none" xmlns="http://www.w3.org/2000/svg">
<path d="M30.2492 45.5714C30.6838 43.3929 31.7703 41.8679 33.5087 40.125C35.6817 38.1643 36.7682 35.3322 36.7682 32.5C36.7682 29.0333 35.3946 25.7085 32.9495 23.2571C30.5044 20.8058 27.1881 19.4286 23.7301 19.4286C20.2722 19.4286 16.9559 20.8058 14.5108 23.2571C12.0657 25.7085 10.692 29.0333 10.692 32.5C10.692 34.6786 11.1266 37.2929 13.9515 40.125C15.4727 41.65 16.7765 43.3929 17.2111 45.5714M17.2111 54.2857H30.2492M19.3841 63H28.0762M41.1143 20.3897L48 15.0715M23.8718 10.7131L23.7301 2M8.1471 19.0539L2 12.8928" stroke="#3D5876" stroke-width="3" stroke-linecap="round" stroke-linejoin="round"/>
</svg>
