<svg width="45" height="55" viewBox="0 0 45 55" fill="none" xmlns="http://www.w3.org/2000/svg">
<path d="M27.0519 34.8594L27.0448 34.8569C26.9911 34.8379 26.9056 34.7943 26.7907 34.6796L19.6556 27.5546C19.5057 27.4049 19.4072 27.2165 19.4072 26.866C19.4072 26.5155 19.5057 26.3271 19.6556 26.1774C19.8056 26.0276 19.9954 25.9285 20.3482 25.9285C20.701 25.9285 20.8907 26.0276 21.0407 26.1774L26.4234 31.5524L27.4833 32.6108L28.5432 31.5524L40.9358 19.1774C41.0859 19.0276 41.2756 18.9285 41.6284 18.9285C41.9812 18.9285 42.1709 19.0276 42.321 19.1774C42.4709 19.3271 42.5694 19.5155 42.5694 19.866C42.5694 20.2165 42.4709 20.4049 42.321 20.5546L28.1759 34.6796C28.061 34.7943 27.9755 34.8379 27.9218 34.8569L27.9147 34.8594C27.7973 34.9016 27.6572 34.9285 27.4833 34.9285C27.3094 34.9285 27.1693 34.9016 27.0519 34.8594ZM33.6192 4.991V13.491H31.612V12.491V10.991H30.112H5.07647H3.57647V12.491V42.491V43.991H5.07647H30.112H31.612V42.491V41.491H33.6192V49.991C33.6192 50.9645 33.2899 51.7613 32.5894 52.4624C31.8874 53.1616 31.0886 53.491 30.112 53.491H5.07647C4.09943 53.491 3.30158 53.1613 2.60136 52.4621C1.89898 51.7607 1.56936 50.9639 1.56936 49.991V4.991C1.56936 4.01806 1.89898 3.22129 2.60136 2.51991C3.30158 1.82068 4.09943 1.491 5.07647 1.491H30.112C31.0889 1.491 31.888 1.82063 32.5901 2.52037C33.2902 3.22122 33.6192 4.01786 33.6192 4.991Z" stroke="#3D5876" stroke-width="3"/>
</svg>
