<svg width="45" height="55" viewBox="0 0 45 55" fill="none" xmlns="http://www.w3.org/2000/svg">
<path d="M34.0498 13.5V5C34.0498 4.02638 33.7205 3.22944 33.0197 2.52834C32.3178 1.8293 31.5191 1.5 30.5427 1.5H5.50711C4.53007 1.5 3.73223 1.82968 3.032 2.52891C2.32962 3.23029 2 4.02706 2 5V50C2 50.9729 2.32962 51.7697 3.032 52.4711C3.73222 53.1703 4.53007 53.5 5.50711 53.5H30.5427C31.5189 53.5 32.3176 53.1708 33.0194 52.472C33.02 52.4714 33.0206 52.4708 33.0212 52.4702M34.0498 13.5L35.5498 50C35.5498 51.375 35.0599 52.5525 34.0802 53.5325L33.0212 52.4702M34.0498 13.5H32.0427V12.5V11H30.5427H5.50711H4.00711V12.5V42.5V44H5.50711H30.5427H32.0427V42.5V41.5H34.0498M34.0498 13.5V41.5M33.0212 52.4702C33.7209 51.7695 34.0498 50.9729 34.0498 50V41.5M33.0212 52.4702L34.0498 41.5M27.4826 34.8684L27.4754 34.8659C27.4218 34.8469 27.3362 34.8033 27.2214 34.6886L20.0862 27.5636C19.9363 27.4139 19.8378 27.2255 19.8378 26.875C19.8378 26.5245 19.9363 26.3361 20.0862 26.1864C20.2363 26.0366 20.426 25.9375 20.7788 25.9375C21.1316 25.9375 21.3213 26.0366 21.4714 26.1864L26.854 31.5614L27.9139 32.6198L28.9738 31.5614L41.3664 19.1864C41.5165 19.0366 41.7062 18.9375 42.059 18.9375C42.4118 18.9375 42.6016 19.0366 42.7516 19.1864C42.9015 19.3361 43 19.5245 43 19.875C43 20.2255 42.9015 20.4139 42.7516 20.5636L28.6065 34.6886C28.4917 34.8033 28.4061 34.8469 28.3525 34.8659L28.3453 34.8684C28.2279 34.9106 28.0879 34.9375 27.9139 34.9375C27.74 34.9375 27.6 34.9106 27.4826 34.8684Z" stroke="#3D5876" stroke-width="3"/>
</svg>
