<svg width="45" height="55" viewBox="0 0 45 55" fill="none" xmlns="http://www.w3.org/2000/svg">
<path d="M26.8828 35.3299L26.878 35.3283C26.7449 35.2812 26.5974 35.1932 26.4374 35.0334L19.3023 27.9084C19.0494 27.6558 18.9072 27.3358 18.9072 26.866C18.9072 26.3962 19.0494 26.0762 19.3023 25.8236C19.5553 25.5709 19.8765 25.4285 20.3482 25.4285C20.8198 25.4285 21.141 25.5709 21.3941 25.8236L26.7767 31.1986L27.4833 31.9042L28.1899 31.1986L40.5825 18.8236C40.8355 18.5709 41.1568 18.4285 41.6284 18.4285C42.1001 18.4285 42.4213 18.5709 42.6743 18.8236C42.9272 19.0762 43.0694 19.3962 43.0694 19.866C43.0694 20.3358 42.9272 20.6558 42.6743 20.9084L28.5292 35.0334C28.3692 35.1932 28.2217 35.2812 28.0886 35.3282L28.0838 35.33C27.9082 35.3931 27.7105 35.4285 27.4833 35.4285C27.2561 35.4285 27.0584 35.3931 26.8828 35.3299ZM34.1192 4.991V13.991H31.112V12.491V11.491H30.112H5.07647H4.07647V12.491V42.491V43.491H5.07647H30.112H31.112V42.491V40.991H34.1192V49.991C34.1192 51.098 33.7366 52.0216 32.9434 52.8155C32.1481 53.6082 31.2223 53.991 30.112 53.991H5.07647C3.96613 53.991 3.04145 53.6082 2.24805 52.8159C1.45267 52.0216 1.06936 51.098 1.06936 49.991V4.991C1.06936 3.88404 1.45267 2.96036 2.24805 2.16611C3.04145 1.37384 3.96613 0.990999 5.07647 0.990999H30.112C31.2224 0.990999 32.1483 1.3739 32.9436 2.16671C33.7366 2.96056 34.1192 3.88404 34.1192 4.991Z" stroke="#3D5876" stroke-width="2"/>
</svg>
