<svg width="128" height="128" viewBox="0 0 128 128" fill="none" xmlns="http://www.w3.org/2000/svg">
<circle cx="64" cy="64" r="63.5" stroke="#8EE8B7"/>
<path d="M63.5001 71.6155C67.674 71.6155 71.0576 68.2319 71.0576 64.058C71.0576 59.8841 67.674 56.5005 63.5001 56.5005C59.3262 56.5005 55.9426 59.8841 55.9426 64.058C55.9426 68.2319 59.3262 71.6155 63.5001 71.6155Z" fill="#8EE8B7"/>
<path d="M92.2053 51.595C90.7468 51.0647 89.222 50.5343 87.631 50.0703C88.0288 48.4792 88.3602 46.8882 88.6254 45.3634C90.0176 36.6126 88.4928 30.4473 84.25 28.0607C82.9904 27.3315 81.5982 27 80.0072 27C75.3666 27 69.4665 30.4473 63.5 36.2149C57.5335 30.4473 51.6334 27 46.9928 27C45.4018 27 44.0096 27.3315 42.75 28.0607C38.5072 30.5136 36.9824 36.6789 38.3746 45.3634C38.6398 46.8882 38.9712 48.4792 39.369 50.0703C37.778 50.5343 36.2532 50.9984 34.7947 51.595C26.508 54.7772 22 59.1526 22 64.0583C22 68.9641 26.5743 73.3395 34.7947 76.5216C36.2532 77.0519 37.778 77.5823 39.369 78.0463C38.9712 79.6374 38.6398 81.2284 38.3746 82.7532C36.9824 91.504 38.5072 97.6693 42.75 100.056C44.0096 100.785 45.4018 101.117 46.9928 101.117C51.6997 101.117 57.5998 97.6693 63.5 91.9018C69.4665 97.6693 75.3666 101.117 80.0072 101.117C81.5982 101.117 82.9904 100.785 84.25 100.056C88.4928 97.603 90.0176 91.4377 88.6254 82.7532C88.3602 81.2284 88.0288 79.6374 87.631 78.0463C89.222 77.5823 90.7468 77.1182 92.2053 76.5216C100.492 73.3395 105 68.9641 105 64.0583C105 59.1526 100.492 54.7772 92.2053 51.595ZM82.3938 31.3754C85.1118 32.9665 86.0399 37.8722 84.9129 44.8331C84.7141 46.2252 84.3826 47.6837 83.9848 49.2085C80.5375 48.4129 76.8914 47.8826 73.0463 47.5511C70.7923 44.369 68.472 41.5184 66.1518 38.9329C71.0575 34.0935 76.0296 30.7788 80.0735 30.7788C80.9353 30.7788 81.7308 30.9776 82.3938 31.3754ZM74.9689 70.6877C73.7756 72.8091 72.3834 74.9305 70.9249 77.0519C68.472 77.2508 66.0192 77.3171 63.5 77.3171C60.9145 77.3171 58.4617 77.2508 56.0751 77.0519C54.6166 74.9305 53.2907 72.8091 52.0974 70.6877C50.8379 68.5 49.6446 66.246 48.5839 64.0583C49.6446 61.8706 50.8379 59.6166 52.0974 57.4289C53.2907 55.3075 54.6829 53.1861 56.1414 51.0647C58.5942 50.8658 61.0471 50.7995 63.5663 50.7995C66.1518 50.7995 68.6046 50.8658 70.9912 51.0647C72.4497 53.1861 73.7756 55.3075 74.9689 57.4289C76.2284 59.6166 77.4217 61.8706 78.4824 64.0583C77.3554 66.246 76.2284 68.4337 74.9689 70.6877ZM80.4712 68.5C81.4657 70.8203 82.2612 73.0743 82.9904 75.3283C80.7364 75.8586 78.3498 76.2564 75.8307 76.5879C76.6262 75.3283 77.488 74.0024 78.2173 72.6102C79.0128 71.2181 79.742 69.8259 80.4712 68.5ZM63.5 86.4657C61.9089 84.742 60.3842 82.8858 58.9257 80.9633C60.4505 81.0296 61.9752 81.0959 63.5 81.0959C65.0248 81.0959 66.5495 81.0296 68.0743 80.9633C66.6158 82.8858 65.0911 84.742 63.5 86.4657ZM51.1693 76.5216C48.6502 76.1901 46.2636 75.7923 44.0096 75.262C44.7388 73.0743 45.5343 70.754 46.5288 68.4337C47.258 69.7596 47.9872 71.1518 48.7827 72.4776C49.5783 73.9361 50.3738 75.1957 51.1693 76.5216ZM46.5288 59.6166C45.5343 57.2963 44.7388 55.0423 44.0096 52.7883C46.2636 52.258 48.6502 51.8602 51.1693 51.5288C50.3738 52.7883 49.512 54.1142 48.7827 55.5064C47.9872 56.8986 47.258 58.2907 46.5288 59.6166ZM63.5 41.651C65.0911 43.3746 66.6158 45.2308 68.0743 47.1534C66.5495 47.0871 65.0248 47.0208 63.5 47.0208C61.9752 47.0208 60.4505 47.0871 58.9257 47.1534C60.3842 45.2308 61.9089 43.3746 63.5 41.651ZM78.2173 55.5727L75.8307 51.595C78.3498 51.9265 80.7364 52.3243 82.9904 52.8546C82.2612 55.0423 81.4657 57.3626 80.4712 59.6829C79.742 58.2907 79.0128 56.8986 78.2173 55.5727ZM42.0871 44.8331C40.9601 37.8722 41.8882 32.9665 44.6062 31.3754C45.2692 30.9776 46.0647 30.7788 46.9265 30.7788C50.9042 30.7788 55.8762 34.0272 60.8482 38.9329C58.528 41.4521 56.2077 44.369 53.9537 47.5511C50.1086 47.8826 46.4625 48.4792 43.0152 49.2085C42.6174 47.6837 42.3522 46.2252 42.0871 44.8331ZM25.7125 64.0583C25.7125 60.9425 29.4912 57.6278 36.1206 55.1749C37.4465 54.6446 38.905 54.1805 40.3634 53.7828C41.4241 57.0974 42.75 60.611 44.3411 64.1246C42.75 67.6382 41.3578 71.0855 40.3634 74.4002C31.2149 71.7484 25.7125 67.7708 25.7125 64.0583ZM44.6062 96.7412C41.8882 95.1502 40.9601 90.2444 42.0871 83.2836C42.2859 81.8914 42.6174 80.4329 43.0152 78.9082C46.4625 79.7037 50.1086 80.234 53.9537 80.5655C56.2077 83.7476 58.528 86.5983 60.8482 89.1837C55.9425 94.0232 50.9704 97.3379 46.9265 97.3379C46.0647 97.3379 45.2692 97.139 44.6062 96.7412ZM84.9129 83.2836C86.0399 90.2444 85.1118 95.1502 82.3938 96.7412C81.7308 97.139 80.9353 97.3379 80.0735 97.3379C76.0958 97.3379 71.1238 94.0895 66.1518 89.1837C68.472 86.6645 70.7923 83.7476 73.0463 80.5655C76.8914 80.234 80.5375 79.6374 83.9848 78.9082C84.3826 80.4329 84.6478 81.8914 84.9129 83.2836ZM90.8794 72.9417C89.5535 73.4721 88.095 73.9361 86.6366 74.3339C85.5759 71.0192 84.25 67.5056 82.6589 63.992C84.25 60.4784 85.6422 57.0312 86.6366 53.7165C95.7851 56.3682 101.288 60.3459 101.288 64.0583C101.288 67.1741 97.4425 70.4888 90.8794 72.9417Z" fill="#8EE8B7"/>
</svg>
