<svg width="56" height="61" viewBox="0 0 56 61" fill="none" xmlns="http://www.w3.org/2000/svg">
<path d="M27.8741 33.625V2L50.8741 13.5L27.8741 25M52.487 25.6383C54.0169 30.3537 54.16 35.4093 52.8994 40.2037C51.6387 44.9981 49.0273 49.3295 45.3758 52.6825C41.7244 56.0355 37.1865 58.2689 32.3023 59.1171C27.418 59.9653 22.3928 59.3926 17.8247 57.4671C13.2565 55.5415 9.33768 52.3443 6.53436 48.2556C3.73103 44.1669 2.16125 39.359 2.01177 34.4039C1.86229 29.4488 3.1394 24.555 5.69117 20.3048C8.24293 16.0546 11.9619 12.6269 16.4057 10.4295M16.3798 24.9914C14.9392 26.9091 14.0013 29.1568 13.6516 31.5297C13.3019 33.9026 13.5515 36.3253 14.3777 38.577C15.2039 40.8288 16.5804 42.838 18.3818 44.4217C20.1832 46.0053 22.3522 47.1131 24.6913 47.644C27.0303 48.1749 29.465 48.112 31.7736 47.4612C34.0821 46.8103 36.1911 45.5922 37.9085 43.9177C39.6258 42.2433 40.8968 40.1657 41.6057 37.8743C42.3147 35.5829 42.439 33.1506 41.9673 30.7989" stroke="#3D5876" stroke-width="3" stroke-linecap="round" stroke-linejoin="round"/>
</svg>
