<svg width="52" height="53" viewBox="0 0 52 53" fill="none" xmlns="http://www.w3.org/2000/svg">
<path d="M47.6667 2.125H4.33333C2.83756 2.125 1.625 3.33756 1.625 4.83333V18.375C1.625 19.8708 2.83756 21.0833 4.33333 21.0833H47.6667C49.1624 21.0833 50.375 19.8708 50.375 18.375V4.83333C50.375 3.33756 49.1624 2.125 47.6667 2.125Z" stroke="#3D5876" stroke-width="3" stroke-linecap="round" stroke-linejoin="round"/>
<path d="M23.2917 31.9167H4.33333C2.83756 31.9167 1.625 33.1292 1.625 34.625V48.1667C1.625 49.6624 2.83756 50.875 4.33333 50.875H23.2917C24.7874 50.875 26 49.6624 26 48.1667V34.625C26 33.1292 24.7874 31.9167 23.2917 31.9167Z" stroke="#3D5876" stroke-width="3" stroke-linecap="round" stroke-linejoin="round"/>
<path d="M47.6667 31.9167H39.5417C38.0459 31.9167 36.8333 33.1292 36.8333 34.625V48.1667C36.8333 49.6624 38.0459 50.875 39.5417 50.875H47.6667C49.1624 50.875 50.375 49.6624 50.375 48.1667V34.625C50.375 33.1292 49.1624 31.9167 47.6667 31.9167Z" stroke="#3D5876" stroke-width="3" stroke-linecap="round" stroke-linejoin="round"/>
</svg>
