<svg width="58" height="57" viewBox="0 0 58 57" fill="none" xmlns="http://www.w3.org/2000/svg">
<g clip-path="url(#clip0_291_27)">
<path d="M47.5476 49.762C47.5476 44.7228 45.5458 39.8901 41.9827 36.3269C38.4195 32.7637 33.5867 30.762 28.5476 30.762C23.5085 30.762 18.6758 32.7637 15.1126 36.3269C11.5494 39.8901 9.54762 44.7228 9.54762 49.762" stroke="#3D5876" stroke-width="3" stroke-linecap="round" stroke-linejoin="round"/>
<path d="M28.6607 30.988C35.2191 30.988 40.5357 25.6714 40.5357 19.113C40.5357 12.5547 35.2191 7.23804 28.6607 7.23804C22.1023 7.23804 16.7857 12.5547 16.7857 19.113C16.7857 25.6714 22.1023 30.988 28.6607 30.988Z" stroke="#3D5876" stroke-width="3" stroke-linecap="round" stroke-linejoin="round"/>
<path d="M57.2116 48.6649C57.2116 40.6611 52.4616 33.2274 47.7116 29.6649C49.273 28.4935 50.5215 26.9552 51.3467 25.1863C52.1719 23.4173 52.5483 21.4723 52.4426 19.5232C52.337 17.5741 51.7525 15.6811 50.7409 14.0117C49.7292 12.3424 48.3217 10.9481 46.6429 9.95239" stroke="#3D5876" stroke-width="3" stroke-linecap="round" stroke-linejoin="round"/>
<path d="M0.500004 48.6649C0.500004 40.6611 5.25 33.2274 10 29.6649C8.43863 28.4935 7.19011 26.9552 6.36491 25.1863C5.53971 23.4173 5.16329 21.4723 5.26896 19.5232C5.37464 17.5741 5.95914 15.6811 6.97075 14.0117C7.98236 12.3424 9.38989 10.9481 11.0688 9.95239" stroke="#3D5876" stroke-width="3" stroke-linecap="round" stroke-linejoin="round"/>
</g>
<defs>
<clipPath id="clip0_291_27">
<rect width="57" height="57" fill="white" transform="translate(0.5)"/>
</clipPath>
</defs>
</svg>
